<svg version="1.1" id="Layer_1" xmlns="http://www.w3.org/2000/svg" xmlns:xlink="http://www.w3.org/1999/xlink" x="0px" y="0px"
	 width="100%" viewBox="0 0 751 141" enable-background="new 0 0 751 141" xml:space="preserve">
<path fill="none" opacity="1.000000" stroke="none" 
	d="
M1.000000,82.000000 
	C1.000000,55.088436 1.000000,28.176872 1.000000,1.000000 
	C18.021091,1.000000 35.043564,1.000000 52.361526,1.313196 
	C44.796906,3.444722 40.669556,9.163930 38.223026,16.170174 
	C33.387093,30.019083 32.749214,44.216778 36.235126,58.446880 
	C36.987129,61.516705 38.908096,64.551666 41.049164,66.915657 
	C42.011223,67.977890 44.840054,67.349380 46.821819,67.488060 
	C46.867107,65.561050 47.366451,63.504353 46.860985,61.734650 
	C45.878239,58.293892 43.312046,55.042679 43.217506,51.662170 
	C42.972717,42.908894 43.223812,34.068829 44.272167,25.383545 
	C44.784557,21.138599 47.090977,16.906193 49.363152,13.136976 
	C51.492123,9.605321 57.144855,8.342274 59.973293,10.235470 
	C63.445831,12.559793 63.997383,16.438465 62.160931,19.536850 
	C59.272369,24.410311 55.601212,28.883368 51.829033,33.143066 
	C49.921627,35.296986 47.544712,37.278934 50.186905,39.663540 
	C51.431976,40.787228 55.341927,40.896984 56.517895,39.811886 
	C60.855747,35.809246 65.441681,31.620079 68.313934,26.577988 
	C74.559685,15.613925 71.114914,6.200224 60.000000,1.000000 
	C290.601532,1.000000 521.203064,1.000000 751.902283,1.000000 
	C751.902283,47.921406 751.902283,94.843079 751.902283,142.000000 
	C517.311401,142.000000 282.622681,142.000000 47.530697,141.633377 
	C68.485229,133.476715 80.280609,117.556061 84.481178,95.894035 
	C88.766083,73.797073 68.939301,52.950394 46.644226,56.240433 
	C47.907936,58.041695 48.993599,59.599808 50.090172,61.150204 
	C53.470211,65.929092 50.868877,72.927513 45.375160,72.706978 
	C42.709633,72.599976 39.335861,70.553566 37.721928,68.337166 
	C35.183113,64.850632 33.860115,60.478764 32.001335,56.436069 
	C16.770737,59.022408 6.163417,67.202316 1.000000,82.000000 
M702.922180,87.769485 
	C692.583496,91.869919 682.340454,96.234444 671.888062,100.021164 
	C640.735840,111.307083 608.198120,113.363579 575.483154,113.926773 
	C529.734680,114.714348 484.276520,110.422852 438.862701,105.696793 
	C393.466095,100.972534 348.125397,95.687340 302.440796,94.461670 
	C263.642853,93.420761 225.204117,95.863892 187.548050,106.029518 
	C171.486145,110.365608 155.570938,115.178497 141.180267,123.830986 
	C137.832092,125.844101 134.917313,128.578064 131.803116,130.980362 
	C132.100113,131.434128 132.397095,131.887894 132.694077,132.341660 
	C134.362045,131.744583 136.063400,131.226578 137.693069,130.538757 
	C167.342880,118.024658 198.034760,109.909630 230.293411,108.036583 
	C275.850922,105.391365 321.228790,108.102959 366.566071,112.241898 
	C414.165314,116.587326 461.715424,121.559158 509.367096,125.213478 
	C547.479431,128.136230 585.640381,127.416061 623.477661,120.950478 
	C648.242188,116.718742 671.933899,109.270454 693.593201,96.235405 
	C697.369751,93.962616 700.658936,90.880096 704.695679,87.987518 
	C704.688660,87.734879 704.681641,87.482231 704.674683,87.229591 
	C704.332703,87.369629 703.990662,87.509666 702.922180,87.769485 
M542.047241,45.555916 
	C542.391235,44.980515 542.735229,44.405117 543.235901,43.567513 
	C547.616882,53.957455 552.167419,55.074646 560.279175,48.107090 
	C563.474731,45.362316 566.250366,42.128712 569.837219,38.488472 
	C569.837219,44.141422 569.743896,48.746197 569.857361,53.345871 
	C570.067505,61.861176 575.611328,65.680771 583.237732,61.887268 
	C587.904724,59.565800 591.941284,55.892399 596.046936,52.562252 
	C598.144165,50.861179 599.769897,48.578930 602.405823,45.683933 
	C602.579590,48.091808 602.668762,49.045067 602.713867,50.000408 
	C602.932434,54.631763 603.550842,59.281231 608.336670,61.409515 
	C613.017700,63.491165 617.216431,61.170368 620.797974,58.388531 
	C624.698425,55.358982 628.179993,51.790131 631.885315,48.418919 
	C632.083557,48.957260 632.355713,49.564522 632.533264,50.198296 
	C635.883423,62.158592 642.758545,64.624809 652.753540,57.134888 
	C656.961060,53.981857 660.691895,50.192574 664.938293,46.427505 
	C665.006775,47.513287 664.864807,48.492603 665.159424,49.315620 
	C665.965393,51.566532 666.955200,53.751610 667.872253,55.962738 
	C669.911560,54.791824 672.099121,53.812691 673.942200,52.387909 
	C675.356812,51.294331 676.376221,49.669521 677.502991,48.227505 
	C680.370361,44.557877 682.976624,40.654430 686.109863,37.231297 
	C688.926208,34.154388 690.960449,34.870834 691.911926,38.905033 
	C692.674377,42.137627 693.040405,45.474388 693.952515,48.658897 
	C696.129944,56.260559 701.402283,58.579811 708.518921,54.971596 
	C711.702942,53.357265 714.587341,51.152016 717.640442,49.193928 
	C719.882019,55.533432 722.058044,57.024529 728.109619,54.791485 
	C733.154541,52.929909 737.781677,49.936176 743.367188,47.043358 
	C742.204895,52.739830 741.684265,58.385056 739.845703,63.562305 
	C737.229431,70.929718 732.311462,72.624207 725.158997,69.413223 
	C721.833740,67.920418 718.739197,65.916786 715.427368,64.389008 
	C714.577454,63.996937 712.877502,64.152847 712.341064,64.750664 
	C711.835266,65.314369 711.968201,67.028259 712.469055,67.831596 
	C720.149963,80.150970 738.243225,80.144302 744.812195,67.277222 
	C747.632202,61.753532 748.234314,54.950001 749.117798,48.626461 
	C750.011902,42.226170 749.648621,35.652241 750.507690,29.244413 
	C751.244568,23.747854 749.365051,20.515017 743.888611,21.337618 
	C739.949646,21.929279 735.759521,23.561813 732.596252,25.944525 
	C728.268555,29.204266 724.955750,33.775169 720.936401,37.490376 
	C716.808899,41.305618 712.644165,45.214069 707.957764,48.251675 
	C703.717590,50.999977 700.706848,49.301697 699.622803,44.393181 
	C699.123474,42.132462 699.226562,39.740334 698.747131,37.473202 
	C697.974304,33.818169 698.030640,29.401899 693.502869,28.051304 
	C688.687927,26.615023 685.170410,29.291319 682.233459,32.746071 
	C679.753723,35.663113 677.351562,38.653229 675.060913,41.719929 
	C674.317322,42.715443 674.034546,44.055202 673.540955,45.237514 
	C672.897217,44.722038 672.253479,44.206558 671.609741,43.691082 
	C672.510864,39.831913 673.729736,36.010254 674.191467,32.099236 
	C674.459839,29.825747 673.513184,27.408834 673.113281,25.056458 
	C671.411743,26.768543 669.697815,28.468752 668.024841,30.208313 
	C667.824402,30.416761 667.845642,30.838951 667.765503,31.162401 
	C664.958313,42.493855 655.804077,47.762104 646.685242,52.920452 
	C643.216736,54.882530 640.180298,53.771767 640.017456,49.446659 
	C639.794312,43.521420 640.233826,37.571869 640.366089,31.632219 
	C640.407104,29.791824 640.372498,27.949743 640.372498,25.890844 
	C635.479797,26.437555 633.388428,28.655701 632.711365,32.639492 
	C632.194580,35.680367 632.012695,39.222103 630.305786,41.518070 
	C627.367554,45.470329 623.572937,48.894058 619.704407,51.999912 
	C617.842834,53.494514 613.944641,55.124489 612.830750,54.268902 
	C611.040527,52.893784 610.004517,49.499390 610.031738,46.973129 
	C610.156128,35.444450 611.559570,24.108553 616.593567,13.468590 
	C617.948730,10.604341 620.025635,6.610340 615.513123,4.943639 
	C610.841431,3.218125 609.649536,7.625306 608.734863,10.866988 
	C607.204041,16.292307 606.159851,21.855433 604.927795,27.364359 
	C604.280884,30.257257 604.573792,33.934422 602.875488,35.911991 
	C597.474060,42.201832 591.497986,48.035793 585.373901,53.641743 
	C583.795959,55.086212 580.176331,56.214260 578.732056,55.370220 
	C577.185364,54.466400 576.327454,50.993790 576.527649,48.764355 
	C577.031189,43.156734 578.453369,37.637444 579.169617,32.039513 
	C579.385376,30.352901 578.492065,28.524382 578.106689,26.760876 
	C576.273987,27.375696 574.024475,27.513830 572.681152,28.688356 
	C567.056213,33.606613 561.868652,39.029758 556.188171,43.878151 
	C552.760315,46.803890 550.716064,46.115875 550.023438,41.742950 
	C549.418640,37.924816 549.552307,33.815193 550.264221,30.003273 
	C551.379211,24.033043 546.961731,19.016670 541.163635,20.614250 
	C538.657227,21.304867 535.973083,22.309446 534.041809,23.958563 
	C526.570312,30.338331 517.674194,28.487650 508.301849,29.657001 
	C509.857330,23.878273 511.175415,19.104340 512.419189,14.311141 
	C513.085571,11.743271 514.236633,8.550934 510.679077,7.560831 
	C507.039307,6.547859 506.560822,9.880419 505.930145,12.466410 
	C505.339386,14.888803 504.791809,17.321732 504.199493,19.743727 
	C503.371277,23.130184 503.520538,27.566391 501.388214,29.589174 
	C499.362671,31.510670 494.939728,30.905247 491.570801,31.409603 
	C491.406433,31.434212 491.192047,31.385517 491.082123,31.472950 
	C490.049683,32.294456 488.225464,33.127319 488.214020,33.978203 
	C488.198700,35.115910 489.388336,36.545326 490.444397,37.338257 
	C491.355011,38.022022 492.802826,37.990318 494.013153,38.274914 
	C494.241180,38.690456 494.469238,39.105999 494.697266,39.521542 
	C488.675171,43.482094 482.870911,47.853447 476.531219,51.215057 
	C473.722534,52.704369 469.793518,52.597145 466.447937,52.317818 
	C464.994324,52.196449 463.295563,50.005047 462.578186,48.371712 
	C462.261749,47.651245 463.961182,45.831486 465.005157,44.765064 
	C469.173157,40.507256 473.861969,36.681026 477.535461,32.043514 
	C480.195831,28.684965 479.895996,24.247910 476.539276,21.104820 
	C473.084869,17.870316 469.415588,19.575743 466.078217,21.778227 
	C464.981628,22.501898 463.970062,23.433092 463.119659,24.438553 
	C456.816071,31.891504 454.704193,40.603649 456.097107,50.091267 
	C456.841949,55.164726 460.040222,58.316883 465.288757,59.277851 
	C471.260345,60.371201 476.707458,58.706841 481.347748,55.375317 
	C487.479675,50.972832 493.086945,45.839588 499.349457,40.665417 
	C498.445068,45.767948 497.298370,50.844997 496.739746,55.985950 
	C496.466492,58.500401 496.789856,61.335884 497.735779,63.663284 
	C498.984955,66.736870 501.816132,66.762718 504.482788,65.297829 
	C507.502441,63.639050 505.912140,62.063000 504.466339,60.160526 
	C503.688507,59.137077 503.453827,57.316391 503.684387,55.977772 
	C504.670563,50.252621 505.840363,44.554375 507.146606,38.893261 
	C507.393829,37.821911 508.465759,36.246635 509.327606,36.126465 
	C514.121338,35.458076 518.967712,35.166607 524.086975,34.720840 
	C522.327148,40.062271 520.259094,44.359043 519.680176,48.847858 
	C519.339722,51.487453 520.682251,55.034306 522.495544,57.090401 
	C524.872437,59.785637 528.446411,58.927986 531.016296,56.596073 
	C534.691406,53.261234 538.089172,49.620781 542.047241,45.555916 
M213.140015,43.726704 
	C213.623688,40.604805 214.509613,37.473606 214.437729,34.364552 
	C214.395676,32.546360 212.824615,30.763529 211.941406,28.964792 
	C210.265167,30.068493 208.363174,30.940563 206.951859,32.316071 
	C200.914429,38.200218 195.157196,44.377045 189.015717,50.146915 
	C186.196152,52.795872 183.399475,51.658405 183.007401,47.926140 
	C182.532013,43.400749 182.321777,38.655186 183.165878,34.227768 
	C184.491348,27.275352 179.474915,21.889339 172.554657,23.627401 
	C163.868347,25.809015 159.206543,32.436058 154.833298,39.452465 
	C150.152863,46.961685 143.353439,51.849102 135.041382,54.527840 
	C129.396179,56.347122 127.903618,55.235115 126.984367,49.450188 
	C126.305824,45.180138 125.881828,40.855076 124.938187,36.645592 
	C123.883636,31.941364 121.085060,30.536726 116.834167,32.901184 
	C113.402573,34.809925 110.096931,37.261406 107.400505,40.103180 
	C103.099838,44.635662 99.351578,49.692307 95.050720,54.914688 
	C95.552422,49.923836 95.945107,45.356293 96.482658,40.805866 
	C97.652580,30.902197 99.041679,21.020782 99.965736,11.095318 
	C100.118256,9.456975 98.365906,7.641286 97.493881,5.907556 
	C95.794327,6.969039 93.371017,7.650395 92.566597,9.182014 
	C91.390083,11.422085 91.147568,14.250599 90.901459,16.865446 
	C89.373398,33.100502 88.047150,49.355106 86.420937,65.579872 
	C86.109940,68.682625 85.840500,71.818031 89.295784,72.362411 
	C90.837395,72.605301 93.258667,70.224365 94.565033,68.493958 
	C100.553993,60.560913 106.199806,52.368824 112.187950,44.435127 
	C113.476151,42.728390 115.672318,41.706970 118.160812,39.835461 
	C118.854988,44.920692 119.341194,49.017895 119.985023,53.090172 
	C121.438683,62.284676 126.413086,65.480988 135.222336,62.304474 
	C139.675934,60.698566 143.745148,58.026623 147.912354,55.875793 
	C149.684219,68.765282 157.928940,68.222656 165.209076,61.173889 
	C168.858658,57.640308 172.157669,53.744671 175.674423,49.948895 
	C179.951447,60.691166 185.151672,62.044025 194.007324,54.619427 
	C197.778076,51.458019 201.173630,47.849079 205.060303,44.137337 
	C205.060303,45.422127 205.111359,46.344276 205.051743,47.259216 
	C204.738571,52.065708 203.972137,56.896908 204.269485,61.662975 
	C204.393204,63.646164 206.409592,66.287682 208.243927,67.102859 
	C209.383606,67.609329 212.396332,65.679138 213.520554,64.097733 
	C216.496170,59.912056 218.736069,55.211132 221.582840,50.923813 
	C224.181015,47.010887 227.190857,43.371304 230.658249,38.761806 
	C231.430344,41.225277 231.962814,42.281467 232.069870,43.379139 
	C232.489380,47.681141 232.392380,52.074078 233.248520,56.278210 
	C233.790054,58.937515 235.678940,61.322445 236.963516,63.830433 
	C239.301224,62.307178 242.256439,61.253410 243.846680,59.161842 
	C247.048218,54.951023 249.419403,50.118664 252.309372,45.656860 
	C253.671921,43.553249 255.441498,41.713280 257.616241,39.025040 
	C258.547821,44.989281 259.083649,49.769577 260.073425,54.453949 
	C261.743134,62.356106 266.517212,64.530945 273.670959,60.674538 
	C276.542023,59.126808 279.137451,57.067703 281.895447,55.216419 
	C284.930725,67.590134 292.044220,70.680794 303.178162,64.122513 
	C307.576904,61.531525 311.790039,58.344971 315.349701,54.707413 
	C317.773956,52.230099 319.509827,48.672661 320.500244,45.289841 
	C322.161346,39.616154 320.527771,34.419678 316.099976,30.313608 
	C311.891479,26.410892 306.999084,26.653193 302.052643,28.366034 
	C296.224640,30.384136 291.989532,34.325661 288.066895,39.128548 
	C283.835693,44.309231 278.828888,48.991940 273.579803,53.160717 
	C269.737061,56.212593 267.245422,54.956417 266.308319,50.001408 
	C265.446350,45.443592 265.638916,40.677883 264.672638,36.152000 
	C264.223755,34.049553 262.491974,31.413996 260.666351,30.663866 
	C259.163757,30.046457 255.911621,31.247906 254.744537,32.697609 
	C250.807144,37.588379 247.445068,42.943314 243.881897,48.133747 
	C242.864319,49.616051 241.910980,51.142448 240.237518,53.707138 
	C239.769989,49.654808 239.458435,47.179459 239.205460,44.698132 
	C238.952545,42.217503 239.024048,39.671738 238.486923,37.258335 
	C237.046921,30.787998 232.100372,29.037384 227.010071,33.240177 
	C225.118271,34.802143 223.528091,36.832485 222.140381,38.879711 
	C219.530548,42.729885 217.218842,46.780998 214.667938,50.673023 
	C213.999069,51.693565 212.906906,52.436668 211.131577,54.158108 
	C211.962250,49.970612 212.498688,47.266373 213.140015,43.726704 
M435.052856,11.197656 
	C423.816559,10.466494 412.587708,9.537749 401.339813,9.112833 
	C397.475708,8.966856 396.055725,12.955035 398.026306,16.206476 
	C398.900848,17.649387 399.304413,19.759104 399.056091,21.438112 
	C397.645935,30.972572 395.837891,40.448254 394.432892,49.983379 
	C393.245239,58.043400 398.015717,61.548885 405.589935,58.469193 
	C410.197021,56.595955 415.010925,55.136513 419.408783,52.865364 
	C426.455566,49.226208 433.882324,45.873310 439.989777,40.959278 
	C452.325653,31.033922 450.166382,18.216543 435.052856,11.197656 
M365.814514,71.409096 
	C375.143799,62.662910 375.068237,56.543915 365.567169,48.265728 
	C362.991882,46.021885 360.485229,43.699314 357.867126,41.340897 
	C360.672119,38.369190 363.428802,36.099911 365.269348,33.240887 
	C366.283569,31.665428 365.758575,29.099092 365.927551,26.979490 
	C363.853119,27.200294 361.160980,26.683760 359.833405,27.796003 
	C357.103912,30.082760 354.657928,32.988449 352.901459,36.095203 
	C349.675873,41.800510 350.488129,45.361515 355.308105,49.808727 
	C357.501465,51.832470 360.013367,53.516327 362.162567,55.581459 
	C366.168579,59.430733 365.018311,64.475060 359.747009,66.399231 
	C358.530701,66.843224 356.706879,66.404282 355.952332,67.160057 
	C354.612030,68.502563 353.218536,70.420204 353.145172,72.152199 
	C353.104370,73.115875 355.857788,75.212959 357.048370,75.010880 
	C359.876038,74.530952 362.522949,72.985764 365.814514,71.409096 
M338.175903,6.585711 
	C337.971771,6.323141 337.790588,6.038212 337.559967,5.801458 
	C335.280884,3.462063 332.898010,-0.153173 329.439453,3.319287 
	C326.580109,6.190116 329.262360,8.730797 331.168671,11.456141 
	C332.538483,13.414420 332.780701,16.608868 332.483795,19.129099 
	C332.284027,20.825003 329.840912,22.151072 329.188873,23.931055 
	C328.618195,25.488995 329.146088,27.449369 329.188690,29.231960 
	C330.982635,29.034781 333.309021,29.485245 334.476135,28.525671 
	C338.967834,24.832752 341.113220,12.714016 338.175903,6.585711 
M646.287964,10.555943 
	C647.509155,7.540328 647.638977,4.306742 643.651917,4.331529 
	C641.421204,4.345397 638.999329,6.758154 637.096375,8.549665 
	C636.420532,9.185915 636.795532,12.319592 637.080078,12.376786 
	C639.411194,12.845428 641.837036,12.975915 644.227661,12.922328 
	C644.820251,12.909045 645.389343,11.848996 646.287964,10.555943 
M580.088440,8.731672 
	C579.717651,10.326485 579.376343,11.928853 578.969971,13.514553 
	C578.068787,17.031567 581.305237,18.255117 582.796814,17.459509 
	C584.910767,16.331814 586.374268,13.545140 587.481873,11.171663 
	C587.972229,10.120819 586.950745,7.119304 586.545166,7.105721 
	C584.523621,7.038011 582.478699,7.669175 580.088440,8.731672 
z"/>
<path fill="#E53B40" opacity="1.000000" stroke="none" 
	d="
M1.000000,82.466118 
	C6.163417,67.202316 16.770737,59.022408 32.001335,56.436069 
	C33.860115,60.478764 35.183113,64.850632 37.721928,68.337166 
	C39.335861,70.553566 42.709633,72.599976 45.375160,72.706978 
	C50.868877,72.927513 53.470211,65.929092 50.090172,61.150204 
	C48.993599,59.599808 47.907936,58.041695 46.644226,56.240433 
	C68.939301,52.950394 88.766083,73.797073 84.481178,95.894035 
	C80.280609,117.556061 68.485229,133.476715 47.063713,141.633377 
	C44.629444,142.000000 42.258884,142.000000 39.349159,141.631134 
	C38.002151,141.139069 37.104027,141.203674 36.399708,140.865112 
	C19.545525,132.763275 8.339456,119.810112 2.954906,101.854073 
	C2.455970,100.190254 1.658731,98.615898 1.000001,97.000000 
	C1.000000,92.310745 1.000000,87.621490 1.000000,82.466118 
M9.594843,81.419861 
	C4.253028,100.588425 19.499416,123.506172 33.630386,131.086914 
	C41.102470,135.095428 48.085178,134.376755 54.737545,129.751190 
	C68.002747,120.527542 75.934929,107.880157 77.674408,91.737083 
	C78.387093,85.123108 76.898491,78.803902 72.364792,73.571320 
	C69.267799,69.996902 65.221375,69.066078 61.149094,68.993668 
	C63.431286,72.659912 65.568329,76.092987 68.320969,80.514992 
	C59.556225,81.228035 52.553593,82.253494 45.528229,79.710052 
	C43.915741,79.126274 41.726967,79.398735 40.017757,79.946274 
	C32.996563,82.195442 26.095715,81.238846 17.710594,80.454987 
	C20.522285,75.947601 22.568033,72.668083 24.601877,69.407646 
	C17.103884,69.169128 13.377782,72.013008 9.594843,81.419861 
z"/>
<path fill="#080808" opacity="1.000000" stroke="none" 
	d="
M59.562500,1.000000 
	C71.114914,6.200224 74.559685,15.613925 68.313934,26.577988 
	C65.441681,31.620079 60.855747,35.809246 56.517895,39.811886 
	C55.341927,40.896984 51.431976,40.787228 50.186905,39.663540 
	C47.544712,37.278934 49.921627,35.296986 51.829033,33.143066 
	C55.601212,28.883368 59.272369,24.410311 62.160931,19.536850 
	C63.997383,16.438465 63.445831,12.559793 59.973293,10.235470 
	C57.144855,8.342274 51.492123,9.605321 49.363152,13.136976 
	C47.090977,16.906193 44.784557,21.138599 44.272167,25.383545 
	C43.223812,34.068829 42.972717,42.908894 43.217506,51.662170 
	C43.312046,55.042679 45.878239,58.293892 46.860985,61.734650 
	C47.366451,63.504353 46.867107,65.561050 46.821819,67.488060 
	C44.840054,67.349380 42.011223,67.977890 41.049164,66.915657 
	C38.908096,64.551666 36.987129,61.516705 36.235126,58.446880 
	C32.749214,44.216778 33.387093,30.019083 38.223026,16.170174 
	C40.669556,9.163930 44.796906,3.444722 52.828510,1.313196 
	C55.041668,1.000000 57.083332,1.000000 59.562500,1.000000 
z"/>
<path fill="#FEFAFA" opacity="1.000000" stroke="none" 
	d="
M1.000001,97.468658 
	C1.658731,98.615898 2.455970,100.190254 2.954906,101.854073 
	C8.339456,119.810112 19.545525,132.763275 36.399708,140.865112 
	C37.104027,141.203674 38.002151,141.139069 38.904995,141.631134 
	C26.400478,142.000000 13.800956,142.000000 1.000000,142.000000 
	C1.000000,127.313049 1.000000,112.625183 1.000001,97.468658 
z"/>
<path fill="#070707" opacity="1.000000" stroke="none" 
	d="
M704.173218,88.171555 
	C700.658936,90.880096 697.369751,93.962616 693.593201,96.235405 
	C671.933899,109.270454 648.242188,116.718742 623.477661,120.950478 
	C585.640381,127.416061 547.479431,128.136230 509.367096,125.213478 
	C461.715424,121.559158 414.165314,116.587326 366.566071,112.241898 
	C321.228790,108.102959 275.850922,105.391365 230.293411,108.036583 
	C198.034760,109.909630 167.342880,118.024658 137.693069,130.538757 
	C136.063400,131.226578 134.362045,131.744583 132.694077,132.341660 
	C132.397095,131.887894 132.100113,131.434128 131.803116,130.980362 
	C134.917313,128.578064 137.832092,125.844101 141.180267,123.830986 
	C155.570938,115.178497 171.486145,110.365608 187.548050,106.029518 
	C225.204117,95.863892 263.642853,93.420761 302.440796,94.461670 
	C348.125397,95.687340 393.466095,100.972534 438.862701,105.696793 
	C484.276520,110.422852 529.734680,114.714348 575.483154,113.926773 
	C608.198120,113.363579 640.735840,111.307083 671.888062,100.021164 
	C682.340454,96.234444 692.583496,91.869919 703.416504,87.840073 
	C703.910889,87.910660 704.173218,88.171555 704.173218,88.171555 
z"/>
<path fill="#090909" opacity="1.000000" stroke="none" 
	d="
M541.826294,45.833378 
	C538.089172,49.620781 534.691406,53.261234 531.016296,56.596073 
	C528.446411,58.927986 524.872437,59.785637 522.495544,57.090401 
	C520.682251,55.034306 519.339722,51.487453 519.680176,48.847858 
	C520.259094,44.359043 522.327148,40.062271 524.086975,34.720840 
	C518.967712,35.166607 514.121338,35.458076 509.327606,36.126465 
	C508.465759,36.246635 507.393829,37.821911 507.146606,38.893261 
	C505.840363,44.554375 504.670563,50.252621 503.684387,55.977772 
	C503.453827,57.316391 503.688507,59.137077 504.466339,60.160526 
	C505.912140,62.063000 507.502441,63.639050 504.482788,65.297829 
	C501.816132,66.762718 498.984955,66.736870 497.735779,63.663284 
	C496.789856,61.335884 496.466492,58.500401 496.739746,55.985950 
	C497.298370,50.844997 498.445068,45.767948 499.349457,40.665417 
	C493.086945,45.839588 487.479675,50.972832 481.347748,55.375317 
	C476.707458,58.706841 471.260345,60.371201 465.288757,59.277851 
	C460.040222,58.316883 456.841949,55.164726 456.097107,50.091267 
	C454.704193,40.603649 456.816071,31.891504 463.119659,24.438553 
	C463.970062,23.433092 464.981628,22.501898 466.078217,21.778227 
	C469.415588,19.575743 473.084869,17.870316 476.539276,21.104820 
	C479.895996,24.247910 480.195831,28.684965 477.535461,32.043514 
	C473.861969,36.681026 469.173157,40.507256 465.005157,44.765064 
	C463.961182,45.831486 462.261749,47.651245 462.578186,48.371712 
	C463.295563,50.005047 464.994324,52.196449 466.447937,52.317818 
	C469.793518,52.597145 473.722534,52.704369 476.531219,51.215057 
	C482.870911,47.853447 488.675171,43.482094 494.697266,39.521542 
	C494.469238,39.105999 494.241180,38.690456 494.013153,38.274914 
	C492.802826,37.990318 491.355011,38.022022 490.444397,37.338257 
	C489.388336,36.545326 488.198700,35.115910 488.214020,33.978203 
	C488.225464,33.127319 490.049683,32.294456 491.082123,31.472950 
	C491.192047,31.385517 491.406433,31.434212 491.570801,31.409603 
	C494.939728,30.905247 499.362671,31.510670 501.388214,29.589174 
	C503.520538,27.566391 503.371277,23.130184 504.199493,19.743727 
	C504.791809,17.321732 505.339386,14.888803 505.930145,12.466410 
	C506.560822,9.880419 507.039307,6.547859 510.679077,7.560831 
	C514.236633,8.550934 513.085571,11.743271 512.419189,14.311141 
	C511.175415,19.104340 509.857330,23.878273 508.301849,29.657001 
	C517.674194,28.487650 526.570312,30.338331 534.041809,23.958563 
	C535.973083,22.309446 538.657227,21.304867 541.163635,20.614250 
	C546.961731,19.016670 551.379211,24.033043 550.264221,30.003273 
	C549.552307,33.815193 549.418640,37.924816 550.023438,41.742950 
	C550.716064,46.115875 552.760315,46.803890 556.188171,43.878151 
	C561.868652,39.029758 567.056213,33.606613 572.681152,28.688356 
	C574.024475,27.513830 576.273987,27.375696 578.106689,26.760872 
	C578.492065,28.524382 579.385376,30.352901 579.169617,32.039513 
	C578.453369,37.637444 577.031189,43.156734 576.527649,48.764355 
	C576.327454,50.993790 577.185364,54.466400 578.732056,55.370220 
	C580.176331,56.214260 583.795959,55.086212 585.373901,53.641743 
	C591.497986,48.035793 597.474060,42.201832 602.875488,35.911991 
	C604.573792,33.934422 604.280884,30.257257 604.927795,27.364359 
	C606.159851,21.855433 607.204041,16.292307 608.734863,10.866988 
	C609.649536,7.625306 610.841431,3.218125 615.513123,4.943639 
	C620.025635,6.610340 617.948730,10.604341 616.593567,13.468590 
	C611.559570,24.108553 610.156128,35.444450 610.031738,46.973129 
	C610.004517,49.499390 611.040527,52.893784 612.830750,54.268902 
	C613.944641,55.124489 617.842834,53.494514 619.704407,51.999912 
	C623.572937,48.894058 627.367554,45.470329 630.305786,41.518070 
	C632.012695,39.222103 632.194580,35.680367 632.711365,32.639492 
	C633.388428,28.655701 635.479797,26.437555 640.372498,25.890844 
	C640.372498,27.949743 640.407104,29.791824 640.366089,31.632219 
	C640.233826,37.571869 639.794312,43.521420 640.017456,49.446659 
	C640.180298,53.771767 643.216736,54.882530 646.685242,52.920452 
	C655.804077,47.762104 664.958313,42.493855 667.765503,31.162401 
	C667.845642,30.838951 667.824402,30.416761 668.024841,30.208313 
	C669.697815,28.468752 671.411743,26.768543 673.113281,25.056458 
	C673.513184,27.408834 674.459839,29.825747 674.191467,32.099236 
	C673.729736,36.010254 672.510864,39.831913 671.609741,43.691082 
	C672.253479,44.206558 672.897217,44.722038 673.540955,45.237514 
	C674.034546,44.055202 674.317322,42.715443 675.060913,41.719929 
	C677.351562,38.653229 679.753723,35.663113 682.233459,32.746071 
	C685.170410,29.291319 688.687927,26.615023 693.502869,28.051304 
	C698.030640,29.401899 697.974304,33.818169 698.747131,37.473202 
	C699.226562,39.740334 699.123474,42.132462 699.622803,44.393181 
	C700.706848,49.301697 703.717590,50.999977 707.957764,48.251675 
	C712.644165,45.214069 716.808899,41.305618 720.936401,37.490376 
	C724.955750,33.775169 728.268555,29.204266 732.596252,25.944525 
	C735.759521,23.561813 739.949646,21.929279 743.888611,21.337618 
	C749.365051,20.515017 751.244568,23.747854 750.507690,29.244413 
	C749.648621,35.652241 750.011902,42.226170 749.117798,48.626461 
	C748.234314,54.950001 747.632202,61.753532 744.812195,67.277222 
	C738.243225,80.144302 720.149963,80.150970 712.469055,67.831596 
	C711.968201,67.028259 711.835266,65.314369 712.341064,64.750664 
	C712.877502,64.152847 714.577454,63.996937 715.427368,64.389008 
	C718.739197,65.916786 721.833740,67.920418 725.158997,69.413223 
	C732.311462,72.624207 737.229431,70.929718 739.845703,63.562305 
	C741.684265,58.385056 742.204895,52.739830 743.367188,47.043358 
	C737.781677,49.936176 733.154541,52.929909 728.109619,54.791485 
	C722.058044,57.024529 719.882019,55.533432 717.640442,49.193928 
	C714.587341,51.152016 711.702942,53.357265 708.518921,54.971596 
	C701.402283,58.579811 696.129944,56.260559 693.952515,48.658897 
	C693.040405,45.474388 692.674377,42.137627 691.911926,38.905033 
	C690.960449,34.870834 688.926208,34.154388 686.109863,37.231297 
	C682.976624,40.654430 680.370361,44.557877 677.502991,48.227505 
	C676.376221,49.669521 675.356812,51.294331 673.942200,52.387909 
	C672.099121,53.812691 669.911560,54.791824 667.872192,55.962753 
	C666.955200,53.751610 665.965393,51.566532 665.159424,49.315620 
	C664.864807,48.492603 665.006775,47.513287 664.938293,46.427505 
	C660.691895,50.192574 656.961060,53.981857 652.753540,57.134888 
	C642.758545,64.624809 635.883423,62.158592 632.533264,50.198296 
	C632.355713,49.564522 632.083557,48.957260 631.885315,48.418919 
	C628.179993,51.790131 624.698425,55.358982 620.797974,58.388531 
	C617.216431,61.170368 613.017700,63.491165 608.336670,61.409515 
	C603.550842,59.281231 602.932434,54.631763 602.713867,50.000408 
	C602.668762,49.045067 602.579590,48.091808 602.405823,45.683933 
	C599.769897,48.578930 598.144165,50.861179 596.046936,52.562252 
	C591.941284,55.892399 587.904724,59.565800 583.237732,61.887268 
	C575.611328,65.680771 570.067505,61.861176 569.857361,53.345871 
	C569.743896,48.746197 569.837219,44.141422 569.837219,38.488472 
	C566.250366,42.128712 563.474731,45.362316 560.279175,48.107090 
	C552.167419,55.074646 547.616882,53.957455 543.235901,43.567513 
	C542.735229,44.405117 542.391235,44.980515 541.826294,45.833378 
M743.868530,28.944593 
	C742.088440,24.681213 739.402222,27.840662 738.023376,28.790518 
	C730.988892,33.636539 726.335022,40.321163 724.036682,48.705410 
	C728.909912,49.062370 736.278076,46.806271 740.576721,41.674976 
	C742.979065,38.807236 742.841553,33.811783 743.868530,28.944593 
M538.595825,27.875963 
	C534.476685,33.967934 530.215942,39.972672 526.361755,46.227890 
	C525.620483,47.430950 526.474670,49.617016 526.592773,51.349586 
	C528.170044,50.775841 530.288269,50.660072 531.229797,49.548050 
	C535.045898,45.041149 538.836487,40.437302 541.947510,35.440281 
	C543.524536,32.907242 543.634338,29.460760 544.740479,25.120504 
	C541.828979,26.306435 540.501404,26.847193 538.595825,27.875963 
M463.719757,35.248516 
	C463.458679,36.403893 463.197632,37.559269 462.831757,39.178406 
	C471.261353,33.910110 473.368042,30.495346 470.628265,24.455288 
	C468.080139,28.292076 466.011414,31.407042 463.719757,35.248516 
z"/>
<path fill="#080808" opacity="1.000000" stroke="none" 
	d="
M213.087585,44.144421 
	C212.498688,47.266373 211.962250,49.970612 211.131577,54.158108 
	C212.906906,52.436668 213.999069,51.693565 214.667938,50.673023 
	C217.218842,46.780998 219.530548,42.729885 222.140381,38.879711 
	C223.528091,36.832485 225.118271,34.802143 227.010071,33.240177 
	C232.100372,29.037384 237.046921,30.787998 238.486923,37.258335 
	C239.024048,39.671738 238.952545,42.217503 239.205460,44.698132 
	C239.458435,47.179459 239.769989,49.654808 240.237518,53.707138 
	C241.910980,51.142448 242.864319,49.616051 243.881897,48.133747 
	C247.445068,42.943314 250.807144,37.588379 254.744537,32.697609 
	C255.911621,31.247906 259.163757,30.046457 260.666351,30.663866 
	C262.491974,31.413996 264.223755,34.049553 264.672638,36.152000 
	C265.638916,40.677883 265.446350,45.443592 266.308319,50.001408 
	C267.245422,54.956417 269.737061,56.212593 273.579803,53.160717 
	C278.828888,48.991940 283.835693,44.309231 288.066895,39.128548 
	C291.989532,34.325661 296.224640,30.384136 302.052643,28.366034 
	C306.999084,26.653193 311.891479,26.410892 316.099976,30.313608 
	C320.527771,34.419678 322.161346,39.616154 320.500244,45.289841 
	C319.509827,48.672661 317.773956,52.230099 315.349701,54.707413 
	C311.790039,58.344971 307.576904,61.531525 303.178162,64.122513 
	C292.044220,70.680794 284.930725,67.590134 281.895447,55.216419 
	C279.137451,57.067703 276.542023,59.126808 273.670959,60.674538 
	C266.517212,64.530945 261.743134,62.356106 260.073425,54.453949 
	C259.083649,49.769577 258.547821,44.989281 257.616241,39.025040 
	C255.441498,41.713280 253.671921,43.553249 252.309372,45.656860 
	C249.419403,50.118664 247.048218,54.951023 243.846680,59.161842 
	C242.256439,61.253410 239.301224,62.307178 236.963516,63.830437 
	C235.678940,61.322445 233.790054,58.937515 233.248520,56.278210 
	C232.392380,52.074078 232.489380,47.681141 232.069870,43.379139 
	C231.962814,42.281467 231.430344,41.225277 230.658249,38.761806 
	C227.190857,43.371304 224.181015,47.010887 221.582840,50.923813 
	C218.736069,55.211132 216.496170,59.912056 213.520554,64.097733 
	C212.396332,65.679138 209.383606,67.609329 208.243927,67.102859 
	C206.409592,66.287682 204.393204,63.646164 204.269485,61.662975 
	C203.972137,56.896908 204.738571,52.065708 205.051743,47.259216 
	C205.111359,46.344276 205.060303,45.422127 205.060303,44.137337 
	C201.173630,47.849079 197.778076,51.458019 194.007324,54.619427 
	C185.151672,62.044025 179.951447,60.691166 175.674423,49.948895 
	C172.157669,53.744671 168.858658,57.640308 165.209076,61.173889 
	C157.928940,68.222656 149.684219,68.765282 147.912354,55.875793 
	C143.745148,58.026623 139.675934,60.698566 135.222336,62.304474 
	C126.413086,65.480988 121.438683,62.284676 119.985023,53.090172 
	C119.341194,49.017895 118.854988,44.920692 118.160812,39.835461 
	C115.672318,41.706970 113.476151,42.728390 112.187950,44.435127 
	C106.199806,52.368824 100.553993,60.560913 94.565033,68.493958 
	C93.258667,70.224365 90.837395,72.605301 89.295784,72.362411 
	C85.840500,71.818031 86.109940,68.682625 86.420937,65.579872 
	C88.047150,49.355106 89.373398,33.100502 90.901459,16.865446 
	C91.147568,14.250599 91.390083,11.422085 92.566597,9.182014 
	C93.371017,7.650395 95.794327,6.969039 97.493881,5.907557 
	C98.365906,7.641286 100.118256,9.456975 99.965736,11.095318 
	C99.041679,21.020782 97.652580,30.902197 96.482658,40.805866 
	C95.945107,45.356293 95.552422,49.923836 95.050720,54.914688 
	C99.351578,49.692307 103.099838,44.635662 107.400505,40.103180 
	C110.096931,37.261406 113.402573,34.809925 116.834167,32.901184 
	C121.085060,30.536726 123.883636,31.941364 124.938187,36.645592 
	C125.881828,40.855076 126.305824,45.180138 126.984367,49.450188 
	C127.903618,55.235115 129.396179,56.347122 135.041382,54.527840 
	C143.353439,51.849102 150.152863,46.961685 154.833298,39.452465 
	C159.206543,32.436058 163.868347,25.809015 172.554657,23.627401 
	C179.474915,21.889339 184.491348,27.275352 183.165878,34.227768 
	C182.321777,38.655186 182.532013,43.400749 183.007401,47.926140 
	C183.399475,51.658405 186.196152,52.795872 189.015717,50.146915 
	C195.157196,44.377045 200.914429,38.200218 206.951859,32.316071 
	C208.363174,30.940563 210.265167,30.068493 211.941406,28.964790 
	C212.824615,30.763529 214.395676,32.546360 214.437729,34.364552 
	C214.509613,37.473606 213.623688,40.604805 213.087585,44.144421 
M313.208038,44.055698 
	C313.869293,40.342587 313.333069,37.037388 309.659210,35.118347 
	C305.905457,33.157543 302.646698,34.383301 299.633179,36.960670 
	C294.332672,41.494087 291.608978,47.451424 290.469757,54.118843 
	C289.770111,58.213512 293.065948,60.853119 296.956543,59.367916 
	C304.130951,56.629177 310.044617,52.320538 313.208038,44.055698 
M162.691605,55.416180 
	C169.527969,48.220886 176.223419,40.954762 176.058365,29.892895 
	C166.583969,30.912603 154.598175,48.497066 156.625885,58.904194 
	C158.633743,57.810497 160.376389,56.861259 162.691605,55.416180 
z"/>
<path fill="#090909" opacity="1.000000" stroke="none" 
	d="
M435.400513,11.376244 
	C450.166382,18.216543 452.325653,31.033922 439.989777,40.959278 
	C433.882324,45.873310 426.455566,49.226208 419.408783,52.865364 
	C415.010925,55.136513 410.197021,56.595955 405.589935,58.469193 
	C398.015717,61.548885 393.245239,58.043400 394.432892,49.983379 
	C395.837891,40.448254 397.645935,30.972572 399.056091,21.438112 
	C399.304413,19.759104 398.900848,17.649387 398.026306,16.206476 
	C396.055725,12.955035 397.475708,8.966856 401.339813,9.112833 
	C412.587708,9.537749 423.816559,10.466494 435.400513,11.376244 
M410.679932,48.237297 
	C416.441559,46.173283 422.491516,44.662537 427.868683,41.860680 
	C431.787079,39.818905 435.470917,36.554722 438.100983,32.982651 
	C442.745728,26.674305 440.754456,20.398022 433.128723,18.330019 
	C427.016266,16.672398 420.395294,16.880682 413.997620,16.286936 
	C408.883881,15.812352 406.698547,18.277122 406.303070,23.299793 
	C405.992828,27.240679 404.727051,31.096663 404.192230,35.032013 
	C403.535278,39.866070 403.197021,44.743435 402.645264,50.374977 
	C405.824402,49.581818 407.880890,49.068748 410.679932,48.237297 
z"/>
<path fill="#080808" opacity="1.000000" stroke="none" 
	d="
M365.528687,71.640076 
	C362.522949,72.985764 359.876038,74.530952 357.048370,75.010880 
	C355.857788,75.212959 353.104370,73.115875 353.145172,72.152199 
	C353.218536,70.420204 354.612030,68.502563 355.952332,67.160057 
	C356.706879,66.404282 358.530701,66.843224 359.747009,66.399231 
	C365.018311,64.475060 366.168579,59.430733 362.162567,55.581459 
	C360.013367,53.516327 357.501465,51.832470 355.308105,49.808727 
	C350.488129,45.361515 349.675873,41.800510 352.901459,36.095203 
	C354.657928,32.988449 357.103912,30.082760 359.833405,27.796003 
	C361.160980,26.683760 363.853119,27.200294 365.927551,26.979488 
	C365.758575,29.099092 366.283569,31.665428 365.269348,33.240887 
	C363.428802,36.099911 360.672119,38.369190 357.867126,41.340897 
	C360.485229,43.699314 362.991882,46.021885 365.567169,48.265728 
	C375.068237,56.543915 375.143799,62.662910 365.528687,71.640076 
z"/>
<path fill="#0B0B0B" opacity="1.000000" stroke="none" 
	d="
M338.422546,6.889063 
	C341.113220,12.714016 338.967834,24.832752 334.476135,28.525671 
	C333.309021,29.485245 330.982635,29.034781 329.188690,29.231962 
	C329.146088,27.449369 328.618195,25.488995 329.188873,23.931055 
	C329.840912,22.151072 332.284027,20.825003 332.483795,19.129099 
	C332.780701,16.608868 332.538483,13.414420 331.168671,11.456141 
	C329.262360,8.730797 326.580109,6.190116 329.439453,3.319287 
	C332.898010,-0.153173 335.280884,3.462063 337.559967,5.801458 
	C337.790588,6.038212 337.971771,6.323141 338.422546,6.889063 
z"/>
<path fill="#0F0F0F" opacity="1.000000" stroke="none" 
	d="
M646.128662,10.913027 
	C645.389343,11.848996 644.820251,12.909045 644.227661,12.922328 
	C641.837036,12.975915 639.411194,12.845428 637.080078,12.376786 
	C636.795532,12.319592 636.420532,9.185915 637.096375,8.549665 
	C638.999329,6.758154 641.421204,4.345397 643.651917,4.331529 
	C647.638977,4.306742 647.509155,7.540328 646.128662,10.913027 
z"/>
<path fill="#101010" opacity="1.000000" stroke="none" 
	d="
M580.265198,8.393034 
	C582.478699,7.669175 584.523621,7.038011 586.545166,7.105721 
	C586.950745,7.119304 587.972229,10.120819 587.481873,11.171663 
	C586.374268,13.545140 584.910767,16.331814 582.796814,17.459509 
	C581.305237,18.255117 578.068787,17.031567 578.969971,13.514553 
	C579.376343,11.928853 579.717651,10.326485 580.265198,8.393034 
z"/>
<path fill="#070707" opacity="1.000000" stroke="none" 
	d="
M703.779785,87.780182 
	C703.990662,87.509666 704.332703,87.369629 704.674683,87.229591 
	C704.681641,87.482231 704.688660,87.734879 704.434448,88.079536 
	C704.173218,88.171555 703.910889,87.910660 703.779785,87.780182 
z"/>
<path fill="#FEF7F8" opacity="1.000000" stroke="none" 
	d="
M9.722383,81.043289 
	C13.377782,72.013008 17.103884,69.169128 24.601877,69.407646 
	C22.568033,72.668083 20.522285,75.947601 17.710594,80.454987 
	C26.095715,81.238846 32.996563,82.195442 40.017757,79.946274 
	C41.726967,79.398735 43.915741,79.126274 45.528229,79.710052 
	C52.553593,82.253494 59.556225,81.228035 68.320969,80.514992 
	C65.568329,76.092987 63.431286,72.659912 61.149094,68.993668 
	C65.221375,69.066078 69.267799,69.996902 72.364792,73.571320 
	C76.898491,78.803902 78.387093,85.123108 77.674408,91.737083 
	C75.934929,107.880157 68.002747,120.527542 54.737545,129.751190 
	C48.085178,134.376755 41.102470,135.095428 33.630386,131.086914 
	C19.499416,123.506172 4.253028,100.588425 9.722383,81.043289 
M56.873108,109.677635 
	C57.202957,107.561501 57.931297,105.383881 57.620079,103.366653 
	C57.526592,102.760674 53.990715,101.769592 52.996822,102.422920 
	C51.298180,103.539513 49.636318,105.675911 49.260876,107.633652 
	C48.558086,111.298370 50.690929,112.003120 56.873108,109.677635 
M42.658604,116.755341 
	C37.111454,120.087990 37.397327,124.161499 43.414413,127.525246 
	C48.823586,123.295471 48.846928,119.760406 42.658604,116.755341 
M68.738693,95.273140 
	C68.852669,93.171967 68.966644,91.070793 69.080620,88.969620 
	C67.258362,88.876709 65.147392,88.147400 63.671116,88.817131 
	C60.078186,90.447105 60.614555,93.662338 61.513390,97.534935 
	C63.927647,96.928169 66.044594,96.396118 68.738693,95.273140 
M33.027241,102.133354 
	C31.364681,102.783859 28.992399,103.000259 28.250185,104.213699 
	C27.581749,105.306534 28.130028,108.309601 29.151562,109.021973 
	C31.142025,110.410042 33.838848,110.785194 36.332825,111.609474 
	C37.559517,107.079964 37.118076,104.252510 33.027241,102.133354 
M41.943726,85.365936 
	C41.413540,85.750130 40.755756,86.036476 40.373909,86.534416 
	C37.916843,89.738510 38.291656,92.864685 41.567051,94.987862 
	C42.464825,95.569809 45.321953,94.639999 46.134960,93.549942 
	C48.310146,90.633507 47.740959,87.663696 44.577759,85.532982 
	C44.086407,85.202003 43.330273,85.264114 41.943726,85.365936 
M16.884819,89.344803 
	C15.022445,92.474983 16.468792,94.940277 19.045847,96.361794 
	C20.511709,97.170364 22.745134,96.587433 24.632906,96.631134 
	C24.652550,94.598686 25.503443,91.675896 24.500103,90.739159 
	C22.933086,89.276161 20.111181,89.154121 17.814247,88.487015 
	C17.717741,88.458992 17.553612,88.663811 16.884819,89.344803 
z"/>
<path fill="#F5F5F5" opacity="1.000000" stroke="none" 
	d="
M743.858521,29.359840 
	C742.841553,33.811783 742.979065,38.807236 740.576721,41.674976 
	C736.278076,46.806271 728.909912,49.062370 724.036682,48.705410 
	C726.335022,40.321163 730.988892,33.636539 738.023376,28.790518 
	C739.402222,27.840662 742.088440,24.681213 743.858521,29.359840 
z"/>
<path fill="#F5F5F5" opacity="1.000000" stroke="none" 
	d="
M538.884827,27.631956 
	C540.501404,26.847193 541.828979,26.306435 544.740479,25.120504 
	C543.634338,29.460760 543.524536,32.907242 541.947510,35.440281 
	C538.836487,40.437302 535.045898,45.041149 531.229797,49.548050 
	C530.288269,50.660072 528.170044,50.775841 526.592773,51.349586 
	C526.474670,49.617016 525.620483,47.430950 526.361755,46.227890 
	C530.215942,39.972672 534.476685,33.967934 538.884827,27.631956 
z"/>
<path fill="#E8E8E8" opacity="1.000000" stroke="none" 
	d="
M463.831238,34.885262 
	C466.011414,31.407042 468.080139,28.292076 470.628265,24.455288 
	C473.368042,30.495346 471.261353,33.910110 462.831757,39.178406 
	C463.197632,37.559269 463.458679,36.403893 463.831238,34.885262 
z"/>
<path fill="#F8F8F8" opacity="1.000000" stroke="none" 
	d="
M313.125977,44.461781 
	C310.044617,52.320538 304.130951,56.629177 296.956543,59.367916 
	C293.065948,60.853119 289.770111,58.213512 290.469757,54.118843 
	C291.608978,47.451424 294.332672,41.494087 299.633179,36.960670 
	C302.646698,34.383301 305.905457,33.157543 309.659210,35.118347 
	C313.333069,37.037388 313.869293,40.342587 313.125977,44.461781 
z"/>
<path fill="#F7F7F7" opacity="1.000000" stroke="none" 
	d="
M162.405334,55.664101 
	C160.376389,56.861259 158.633743,57.810497 156.625885,58.904194 
	C154.598175,48.497066 166.583969,30.912603 176.058365,29.892895 
	C176.223419,40.954762 169.527969,48.220886 162.405334,55.664101 
z"/>
<path fill="#FAFAFA" opacity="1.000000" stroke="none" 
	d="
M410.308655,48.396488 
	C407.880890,49.068748 405.824402,49.581818 402.645264,50.374977 
	C403.197021,44.743435 403.535278,39.866070 404.192230,35.032013 
	C404.727051,31.096663 405.992828,27.240679 406.303070,23.299793 
	C406.698547,18.277122 408.883881,15.812352 413.997620,16.286936 
	C420.395294,16.880682 427.016266,16.672398 433.128723,18.330019 
	C440.754456,20.398022 442.745728,26.674305 438.100983,32.982651 
	C435.470917,36.554722 431.787079,39.818905 427.868683,41.860680 
	C422.491516,44.662537 416.441559,46.173283 410.308655,48.396488 
z"/>
<path fill="#E04448" opacity="1.000000" stroke="none" 
	d="
M56.569977,109.934135 
	C50.690929,112.003120 48.558086,111.298370 49.260876,107.633652 
	C49.636318,105.675911 51.298180,103.539513 52.996822,102.422920 
	C53.990715,101.769592 57.526592,102.760674 57.620079,103.366653 
	C57.931297,105.383881 57.202957,107.561501 56.569977,109.934135 
z"/>
<path fill="#E03F44" opacity="1.000000" stroke="none" 
	d="
M43.072144,116.743881 
	C48.846928,119.760406 48.823586,123.295471 43.414413,127.525246 
	C37.397327,124.161499 37.111454,120.087990 43.072144,116.743881 
z"/>
<path fill="#DF3F43" opacity="1.000000" stroke="none" 
	d="
M68.450119,95.568604 
	C66.044594,96.396118 63.927647,96.928169 61.513390,97.534935 
	C60.614555,93.662338 60.078186,90.447105 63.671116,88.817131 
	C65.147392,88.147400 67.258362,88.876709 69.080620,88.969620 
	C68.966644,91.070793 68.852669,93.171967 68.450119,95.568604 
z"/>
<path fill="#DE3F43" opacity="1.000000" stroke="none" 
	d="
M33.403397,102.288673 
	C37.118076,104.252510 37.559517,107.079964 36.332825,111.609474 
	C33.838848,110.785194 31.142025,110.410042 29.151562,109.021973 
	C28.130028,108.309601 27.581749,105.306534 28.250185,104.213699 
	C28.992399,103.000259 31.364681,102.783859 33.403397,102.288673 
z"/>
<path fill="#DF3F43" opacity="1.000000" stroke="none" 
	d="
M42.320152,85.255188 
	C43.330273,85.264114 44.086407,85.202003 44.577759,85.532982 
	C47.740959,87.663696 48.310146,90.633507 46.134960,93.549942 
	C45.321953,94.639999 42.464825,95.569809 41.567051,94.987862 
	C38.291656,92.864685 37.916843,89.738510 40.373909,86.534416 
	C40.755756,86.036476 41.413540,85.750130 42.320152,85.255188 
z"/>
<path fill="#DF3D42" opacity="1.000000" stroke="none" 
	d="
M17.152901,89.052483 
	C17.553612,88.663811 17.717741,88.458992 17.814247,88.487015 
	C20.111181,89.154121 22.933086,89.276161 24.500103,90.739159 
	C25.503443,91.675896 24.652550,94.598686 24.632906,96.631134 
	C22.745134,96.587433 20.511709,97.170364 19.045847,96.361794 
	C16.468792,94.940277 15.022445,92.474983 17.152901,89.052483 
z"/>
</svg>
